<svg xmlns="http://www.w3.org/2000/svg" width="24" height="27" viewBox="0 0 24 27">
    <g fill="none" fill-rule="evenodd">
        <g fill="#000">
            <path d="M1050.036 88c5.543 0 10.037 4.493 10.037 10.036 0 2.656-1.031 5.07-2.715 6.865.077.046.15.101.218.166l.102.111 6.053 7.451c.418.515.34 1.27-.174 1.688-.475.386-1.156.35-1.586-.063l-.102-.111-6.053-7.452c-.081-.099-.143-.207-.187-.32-1.598 1.075-3.522 1.702-5.593 1.702-5.543 0-10.036-4.494-10.036-10.037 0-5.543 4.493-10.036 10.036-10.036zm0 2.4c-4.217 0-7.636 3.419-7.636 7.636 0 4.218 3.419 7.637 7.636 7.637 4.218 0 7.637-3.42 7.637-7.637s-3.42-7.636-7.637-7.636z" transform="translate(-1162 -210) translate(122 122)"/>
        </g>
    </g>
</svg>
